HIERARCHY
ROOT hip
{
  OFFSET 0 0 0
  CHANNELS 6 Xposition Yposition Zposition Zrotation Yrotation Xrotation
  JOINT abdomen
  {
    OFFSET 0 20.6881 -0.73152
    CHANNELS 3 Zrotation Xrotation Yrotation
    JOINT chest
    {
      OFFSET 0 11.7043 -0.48768
      CHANNELS 3 Zrotation Xrotation Yrotation
      JOINT neck
      {
        OFFSET 0 22.1894 -2.19456
        CHANNELS 3 Zrotation Xrotation Yrotation
        JOINT head
        {
          OFFSET -0.24384 7.07133 1.2192
          CHANNELS 3 Zrotation Xrotation Yrotation
          JOINT leftEye
          {
            OFFSET 4.14528 8.04674 8.04672
            CHANNELS 3 Zrotation Xrotation Yrotation
            End Site
            {
              OFFSET 1 0 0
            }
          }
          JOINT rightEye
          {
            OFFSET -3.6576 8.04674 8.04672
            CHANNELS 3 Zrotation Xrotation Yrotation
            End Site
            {
              OFFSET 1 0 0
            }
          }
        }
      }
      JOINT rCollar
      {
        OFFSET -2.68224 19.2634 -4.8768
        CHANNELS 3 Zrotation Xrotation Yrotation
        JOINT rShldr
        {
          OFFSET -8.77824 -1.95073 1.46304
          CHANNELS 3 Zrotation Xrotation Yrotation
          JOINT rForeArm
          {
            OFFSET -28.1742 -1.7115 0.48768
            CHANNELS 3 Zrotation Xrotation Yrotation
            JOINT rHand
            {
              OFFSET -22.5879 0.773209 7.07136
              CHANNELS 3 Zrotation Xrotation Yrotation
              JOINT rThumb1
              {
                OFFSET -1.2192 -0.487915 3.41376
                CHANNELS 3 Zrotation Xrotation Yrotation
                JOINT rThumb2
                {
                  OFFSET -3.37035 -0.52449 3.41376
                  CHANNELS 3 Zrotation Xrotation Yrotation
                  End Site
                  {
                    OFFSET -1.78271 -1.18214 1.43049
                  }
                }
              }
              JOINT rIndex1
              {
                OFFSET -7.75947 0.938293 5.60832
                CHANNELS 3 Zrotation Xrotation Yrotation
                JOINT rIndex2
                {
                  OFFSET -2.54057 -0.884171 1.56538
                  CHANNELS 3 Zrotation Xrotation Yrotation
                  End Site
                  {
                    OFFSET -1.62519 -0.234802 1.16502
                  }
                }
              }
              JOINT rMid1
              {
                OFFSET -8.24714 1.18213 3.41376
                CHANNELS 3 Zrotation Xrotation Yrotation
                JOINT rMid2
                {
                  OFFSET -3.10165 -0.590103 1.0647
                  CHANNELS 3 Zrotation Xrotation Yrotation
                  End Site
                  {
                    OFFSET -2.48547 -0.328903 0.83742
                  }
                }
              }
              JOINT rRing1
              {
                OFFSET -8.82822 0.546677 1.51678
                CHANNELS 3 Zrotation Xrotation Yrotation
                JOINT rRing2
                {
                  OFFSET -2.60934 -0.819778 -0.0198488
                  CHANNELS 3 Zrotation Xrotation Yrotation
                  End Site
                  {
                    OFFSET -2.33842 -0.294052 0.168128
                  }
                }
              }
              JOINT rPinky1
              {
                OFFSET -8.27202 -0.0477905 -0.4584
                CHANNELS 3 Zrotation Xrotation Yrotation
                JOINT rPinky2
                {
                  OFFSET -1.82734 -0.647385 -0.700984
                  CHANNELS 3 Zrotation Xrotation Yrotation
                  End Site
                  {
                    OFFSET -1.69225 -0.51767 -0.607171
                  }
                }
              }
            }
          }
        }
      }
      JOINT lCollar
      {
        OFFSET 2.68224 19.2634 -4.8768
        CHANNELS 3 Zrotation Xrotation Yrotation
        JOINT lShldr
        {
          OFFSET 8.77824 -1.95073 1.46304
          CHANNELS 3 Zrotation Xrotation Yrotation
          JOINT lForeArm
          {
            OFFSET 28.1742 -1.7115 0.48768
            CHANNELS 3 Zrotation Xrotation Yrotation
            JOINT lHand
            {
              OFFSET 22.5879 0.773209 7.07136
              CHANNELS 3 Zrotation Xrotation Yrotation
              JOINT lThumb1
              {
                OFFSET 1.2192 -0.487915 3.41376
                CHANNELS 3 Zrotation Xrotation Yrotation
                JOINT lThumb2
                {
                  OFFSET 3.37035 -0.52449 3.41376
                  CHANNELS 3 Zrotation Xrotation Yrotation
                  End Site
                  {
                    OFFSET 1.78271 -1.18214 1.43049
                  }
                }
              }
              JOINT lIndex1
              {
                OFFSET 7.75947 0.938293 5.60832
                CHANNELS 3 Zrotation Xrotation Yrotation
                JOINT lIndex2
                {
                  OFFSET 2.54057 -0.884171 1.56538
                  CHANNELS 3 Zrotation Xrotation Yrotation
                  End Site
                  {
                    OFFSET 1.62519 -0.234802 1.16502
                  }
                }
              }
              JOINT lMid1
              {
                OFFSET 8.24714 1.18213 3.41376
                CHANNELS 3 Zrotation Xrotation Yrotation
                JOINT lMid2
                {
                  OFFSET 3.10165 -0.590103 1.0647
                  CHANNELS 3 Zrotation Xrotation Yrotation
                  End Site
                  {
                    OFFSET 2.48547 -0.328903 0.83742
                  }
                }
              }
              JOINT lRing1
              {
                OFFSET 8.82822 0.546677 1.51678
                CHANNELS 3 Zrotation Xrotation Yrotation
                JOINT lRing2
                {
                  OFFSET 2.60934 -0.819778 -0.0198488
                  CHANNELS 3 Zrotation Xrotation Yrotation
                  End Site
                  {
                    OFFSET 2.33842 -0.294052 0.168128
                  }
                }
              }
              JOINT lPinky1
              {
                OFFSET 8.27202 -0.0477905 -0.4584
                CHANNELS 3 Zrotation Xrotation Yrotation
                JOINT lPinky2
                {
                  OFFSET 1.82734 -0.647385 -0.700984
                  CHANNELS 3 Zrotation Xrotation Yrotation
                  End Site
                  {
                    OFFSET 1.69225 -0.51767 -0.607171
                  }
                }
              }
            }
          }
        }
      }
    }
  }
  JOINT rButtock
  {
    OFFSET -8.77824 4.35084 1.2192
    CHANNELS 3 Zrotation Xrotation Yrotation
    JOINT rThigh
    {
      OFFSET 0 -1.70687 -2.19456
      CHANNELS 3 Zrotation Xrotation Yrotation
      JOINT rShin
      {
        OFFSET 0 -36.8199 0.73152
        CHANNELS 3 Zrotation Xrotation Yrotation
        JOINT rFoot
        {
          OFFSET 0.73152 -45.1104 -5.12064
          CHANNELS 3 Zrotation Xrotation Yrotation
          End Site
          {
            OFFSET -1.1221 -3.69964 12.103
          }
        }
      }
    }
  }
  JOINT lButtock
  {
    OFFSET 8.77824 4.35084 1.2192
    CHANNELS 3 Zrotation Xrotation Yrotation
    JOINT lThigh
    {
      OFFSET 0 -1.70687 -2.19456
      CHANNELS 3 Zrotation Xrotation Yrotation
      JOINT lShin
      {
        OFFSET 0 -36.8199 0.73152
        CHANNELS 3 Zrotation Xrotation Yrotation
        JOINT lFoot
        {
          OFFSET -0.73152 -45.1104 -5.12064
          CHANNELS 3 Zrotation Xrotation Yrotation
          End Site
          {
            OFFSET 1.1221 -3.69964 12.103
          }
        }
      }
    }
  }
}
MOTION
Frames:	8
Frame Time:	0.00833333
4.21661 81.5482 21.6163 -0.0 -0.0 -0.0 -0.0 -0.0 -0.0 0.0 0.0 -0.0 -7.839959 7.474454 -64.637578 10.095103 3.902534 64.805654 0.0 0.0 0.0 0.0 0.0 0.0 -143.620413 38.233348 148.080496 -153.748773 -14.787283 171.174154 -84.340841 74.261192 75.008874 25.539482 -52.362336 14.730473 51.059793 -41.203951 12.856726 -4.785737 -47.255908 -33.546264 10.281995 -18.182542 -4.585706 -158.171825 2.483718 105.149927 178.062999 -60.778213 140.972487 -18.962861 41.334804 18.083107 -145.121957 1.974539 -179.748654 22.293508 29.101294 -6.124574 1.134951 3.04054 1.043633 -162.157138 55.169906 -149.791181 80.1661 68.371792 -83.260848 -16.926784 14.142456 0.162407 -116.476664 78.256116 145.121741 178.194028 18.000434 -144.947467 2.890031 2.827845 -0.513516 132.692178 -32.468515 -115.388559 108.427673 34.160977 -91.742903 168.844543 -35.613576 -124.775421 160.09819 -4.901163 -142.968881 -5.728826 2.14614 -0.483415 145.100996 -1.439096 178.675966 64.357857 -78.261708 96.338793 -0.098846 0.258289 -0.091255 12.287995 -25.636977 11.126379 -180.0 75.749642 -0.0 -180.0 75.749642 -0.0 2.512346 0.127625 22.075435 -72.052964 14.397441 13.21692 -180.0 75.749642 -0.0 -180.0 75.749642 -0.0 5.634217 7.031168 86.353135 -10.937268 -58.836485 -110.224295
4.02417 81.3832 22.556 -0.0 -0.0 -0.0 -0.0 -0.0 -0.0 0.0 0.0 -0.0 -7.839959 7.474454 -64.637578 10.095103 3.902534 64.805654 0.0 0.0 0.0 0.0 0.0 0.0 -143.620413 38.233348 148.080496 -153.748773 -14.787283 171.174154 177.371329 -25.231932 142.14444 174.373203 -5.401009 144.967919 71.831195 -48.263725 25.791675 -94.687257 38.773737 60.754293 73.41997 -73.571281 26.563334 122.023341 -57.63683 58.778314 -15.423151 32.961633 11.295888 -165.471208 -4.109079 145.06007 -0.021306 -1.72602 -0.542654 -166.444662 -14.82643 173.205332 -25.537984 -38.087442 -24.598474 -148.291845 12.37238 -145.344662 80.1661 68.371792 -83.260848 -16.926784 14.142456 0.162407 -165.699296 6.060187 -170.269519 74.834018 73.821528 -56.285077 -1.871658 -1.856197 0.257905 123.258183 -13.664567 -110.904227 -45.282556 -63.865437 -4.306423 160.174962 -14.565635 -104.512162 36.036059 51.723116 -29.832321 83.960555 66.935175 -74.590722 -0.004873 1.771387 -0.556475 165.922959 -1.812974 -172.337288 -32.017443 83.320556 -6.228541 137.508928 -13.596557 131.911803 -180.0 75.749642 -0.0 -180.0 75.749642 -0.0 2.512346 0.127625 22.075435 63.99217 -37.472777 -23.046809 -180.0 75.749642 -0.0 -180.0 75.749642 -0.0 5.634217 7.031168 86.353135 -10.937268 -58.836485 -110.224295
3.82851 81.2223 23.4555 -0.0 -0.0 -0.0 -0.0 -0.0 -0.0 0.0 0.0 -0.0 12.086107 9.490159 98.819281 -7.514184 13.392728 -98.942746 0.0 0.0 0.0 0.0 0.0 0.0 -80.1661 68.371792 83.260848 16.926686 14.149077 -0.16198 -9.725066 -0.006893 -24.79515 119.230471 -67.757707 102.255457 -10.082806 9.553975 2.367178 -138.686679 -42.291971 113.216327 159.641557 -69.973343 102.396332 -158.420226 -23.283892 108.679009 68.983989 -80.15399 40.578188 -11.242623 28.728038 10.958649 -145.119466 0.267753 -179.212454 -140.383384 -33.370922 -173.408357 -85.782851 -50.535917 -84.155244 -136.149031 -16.230623 -135.99551 80.1661 68.371792 -83.260848 -16.92521 14.247477 0.155641 -158.686635 43.413494 -174.687039 160.090395 54.004866 -135.011881 -71.831195 -48.263725 -25.791675 13.481713 -35.151688 28.367382 -24.075919 -42.306446 5.558499 81.410915 42.304271 -60.95132 -68.983989 -80.15399 -40.578188 161.524035 0.640784 -139.416879 145.10101 -1.438202 178.676247 139.257308 -38.439213 172.440232 156.381711 53.734251 150.117957 84.235704 -50.565511 84.563435 -180.0 75.749642 -0.0 -180.0 75.749642 -0.0 3.093813 0.300867 27.366401 -102.196121 11.479583 29.144837 -180.0 75.749642 -0.0 -180.0 75.749642 -0.0 2.74577 11.919568 137.880989 -102.092902 -27.500825 160.112613
3.67548 81.096 24.306 -0.0 -0.0 -0.0 -0.0 -0.0 -0.0 0.0 0.0 -0.0 -7.839959 7.474454 -64.637578 10.095103 3.902534 64.805654 0.0 0.0 0.0 0.0 0.0 0.0 -143.620413 38.233348 148.080496 93.700912 -84.665221 68.042651 157.081081 -42.982686 148.623255 -91.37751 74.49663 72.060048 -169.319662 -7.000857 89.921973 -106.696914 12.332009 46.562312 -14.228542 19.203392 9.559881 6.712151 -12.69489 -5.319433 7.904304 -24.807577 -3.013399 9.173198 -25.28105 -0.001877 -145.099706 -1.521107 -178.650165 22.339855 36.204556 -4.547629 19.60213 67.707528 13.091744 2.100106 3.974902 -1.88925 80.1661 68.371792 -83.260848 151.86779 63.18897 -172.20882 87.004459 -79.867552 119.257978 -140.428352 -59.998281 -121.767582 6.581133 6.344846 -1.36571 102.807365 6.417887 -94.046909 -45.282556 -63.865437 -4.306423 166.436973 -21.599872 -103.647076 125.644075 49.839986 -115.274123 171.506325 -39.189136 -146.66002 -0.004673 0.918035 -0.288384 85.487541 78.931691 -88.483474 -19.285428 66.825144 -13.089181 165.556972 55.663661 144.899378 -180.0 75.749642 -0.0 -180.0 75.749642 -0.0 3.093813 0.300867 27.366401 62.382142 -42.624153 -25.866396 -180.0 75.749642 -0.0 -180.0 75.749642 -0.0 2.74577 11.919568 137.880989 -102.092902 -27.500825 160.112613
3.6417400000000004 81.0325 25.1117 -0.0 -0.0 -0.0 -0.0 -0.0 -0.0 0.0 0.0 -0.0 -7.839959 7.474454 -64.637578 10.095103 3.902534 64.805654 0.0 0.0 0.0 0.0 0.0 0.0 -143.620413 38.233348 148.080496 -153.748773 -14.787283 171.174154 9.745556 1.213937 0.184598 -10.797157 31.783059 1.959769 -4.166296 4.057514 0.783763 39.737793 -58.175491 -14.663957 10.746993 -19.048016 -4.725035 -66.7957 44.018025 45.125364 78.537123 -80.919176 49.688177 -164.644859 -7.530015 140.320059 0.000474 0.063839 0.020056 -135.285881 71.612219 138.731977 -149.548271 27.153394 -145.54674 -83.52083 -51.307749 -84.967526 80.1661 68.371792 -83.260848 -16.926784 14.142456 0.162407 -177.674118 -60.28853 -174.327977 5.710246 17.950288 -0.282605 0.441471 0.435329 -0.069465 140.957085 -46.719998 -119.658513 37.733537 36.426136 -28.889264 0.843601 3.183142 8.973617 -173.123457 -66.297779 -137.614274 -13.884128 -24.362406 -1.720317 -0.004871 1.772325 -0.55677 166.565307 -45.828747 -177.869891 1.178169 -2.985265 1.092498 139.398312 -15.687226 134.845249 -180.0 75.749642 -0.0 -180.0 75.749642 -0.0 3.819913 0.604099 34.22701 157.779015 -53.280202 35.135222 -180.0 75.749642 -0.0 -180.0 75.749642 -0.0 2.029982 12.329736 145.110086 -118.648132 -15.421691 151.51158
3.58534 80.994 25.8658 -0.0 -0.0 -0.0 -0.0 -0.0 -0.0 0.0 0.0 -0.0 -7.839959 7.474454 -64.637578 10.095103 3.902534 64.805654 0.0 0.0 0.0 0.0 0.0 0.0 -143.620413 38.233348 148.080496 -153.748773 -14.787283 171.174154 1.784815 25.167461 1.209184 -2.45536 7.856208 -0.10065 178.619005 -18.760041 89.038626 -77.683294 10.422807 23.90377 -46.208543 39.652969 36.318179 129.881831 -69.296073 82.378854 -160.673322 -6.667841 143.245105 5.719579 2.143301 0.585185 -145.111781 -0.626713 -178.931407 22.373882 34.865149 -4.914051 1.482059 4.003653 1.360876 0.459143 1.538114 0.267378 80.1661 68.371792 -83.260848 -16.926784 14.142456 0.162407 -158.696598 43.419875 -174.650309 160.172369 53.912504 -135.074761 38.895831 29.386874 -16.068743 -58.160288 -49.252611 -7.923804 150.053113 -14.751995 -120.686962 -21.973708 -1.311557 11.717887 168.142095 -30.382074 -145.338911 -14.766945 -24.279302 -0.191497 77.742735 72.902851 -95.870145 159.988144 2.388629 173.527402 155.615964 50.802694 149.741567 145.285873 8.497134 139.564259 -180.0 75.749642 -0.0 -180.0 75.749642 -0.0 3.819913 0.604099 34.22701 157.779015 -53.280202 35.135222 -180.0 75.749642 -0.0 -180.0 75.749642 -0.0 2.029982 12.329736 145.110086 -118.648132 -15.421691 151.51158
3.4843099999999994 80.9752 26.5899 -0.0 -0.0 -0.0 -0.0 -0.0 -0.0 0.0 0.0 -0.0 12.086107 9.490159 98.819281 -7.514184 13.392728 -98.942746 0.0 -0.0 -0.0 0.0 -0.0 -0.0 -80.1661 68.371792 83.260848 16.926686 14.149077 -0.16198 -9.725066 -0.006893 -24.79515 119.230471 -67.757707 102.255457 81.971691 -50.091534 32.722881 -57.484978 31.519305 19.420664 60.461659 -70.523647 15.71111 -148.414421 -2.968974 104.959467 14.567553 -44.052929 -2.825371 -46.255069 56.57476 38.357856 -145.121954 1.975391 -179.748922 -139.181777 81.290159 163.573874 25.916531 79.094076 10.831563 -149.909543 14.356007 -140.905844 80.1661 68.371792 -83.260848 -16.92521 14.247477 0.155641 -158.686635 43.413494 -174.687039 160.090395 54.004866 -135.011881 78.030619 38.689342 -42.41267 -25.568322 -27.286655 -19.703771 -0.184726 -0.300416 0.104009 10.034996 13.207958 -3.18658 -23.903801 -61.333833 -1.399383 -161.258991 -62.841002 -127.356569 -0.004873 1.771387 -0.556475 165.90371 -1.504516 -172.299082 144.109804 8.78177 140.874541 -19.804001 45.308494 -6.436136 -180.0 75.749642 -0.0 -180.0 75.749642 -0.0 3.819913 0.604099 34.22701 157.779015 -53.280202 35.135222 -180.0 75.749642 -0.0 -180.0 75.749642 -0.0 2.029982 12.329736 145.110086 -118.648132 -15.421691 151.51158
3.39242 80.9828 27.305699999999998 -0.0 -0.0 -0.0 -0.0 -0.0 -0.0 0.0 0.0 -0.0 12.086107 9.490159 98.819281 -7.514184 13.392728 -98.942746 0.0 0.0 0.0 0.0 0.0 0.0 -80.1661 68.371792 83.260848 16.926686 14.149077 -0.16198 -66.252644 -83.226499 -72.342126 4.443185 -13.708332 1.007161 8.270536 -8.263169 -0.681995 -1.194667 -1.456637 -4.758941 159.641557 -69.973343 102.396332 -60.677474 47.969874 55.063111 -169.08961 -33.247392 145.374931 -9.267111 32.199561 10.723558 -0.014868 -1.323148 -0.415899 -165.613963 -0.810285 171.628716 26.973563 80.122588 10.137824 -128.643529 -27.129567 -124.180544 80.1661 68.371792 -83.260848 -16.92521 14.247477 0.155641 -2.143995 54.241118 32.862035 -168.757952 -21.693366 -143.072824 93.743665 37.963835 -53.548561 -19.347902 -27.658268 -23.148894 152.105085 -18.556554 -121.367907 139.738051 7.673812 -118.380567 -7.904304 -24.807577 3.013399 177.336648 -34.727997 -142.142153 145.12196 1.973689 179.748387 141.541184 -27.576727 174.386573 113.837232 -39.284327 111.847609 151.701894 36.737474 149.286284 -180.0 75.749642 -0.0 -180.0 75.749642 -0.0 3.093813 0.300867 27.366401 62.382142 -42.624153 -25.866396 -180.0 75.749642 -0.0 -180.0 75.749642 -0.0 2.74577 11.919568 137.880989 -102.092902 -27.500825 160.112613
